{"title":"Inkheart (2008) 720p BrRip x264 [Hindi] ~ Lokioddin (PimpRG)","uid":9542120,"size":904673925,"categoryP":"video","categoryS":"hd___movies","magnet":"?xt=urn:btih:38c8f0fd3ee7c413c47797029999866ebbbd4922&amp;dn=Inkheart+%282008%29+720p+BrRip+x264+%5BHindi%5D+%7E+Lokioddin+%28PimpRG%29&amp;tr=udp%3A%2F%2Ftracker.openbittorrent.com%3A80&amp;tr=udp%3A%2F%2Fopen.demonii.com%3A1337&amp;tr=udp%3A%2F%2Ftracker.coppersurfer.tk%3A6969&amp;tr=udp%3A%2F%2Fexodus.desync.com%3A6969","seeders":1,"leechers":0,"uploader":"lokioddin","files":-1,"time":1391066239,"description":"Inkheart (2008) 720p BrRip x264 [Hindi] ~ Lokioddin (PimpRG)\n &lt;a href=&quot;\nhttp://i1.someimage.com/cAHGTLW.jpg&quot; rel=&quot;nofollow&quot; target=&quot;_NEW&quot;&gt;\nhttp://i1.someimage.com/cAHGTLW.jpg&lt;/a&gt;\n &lt;a href=&quot;\nhttp://i1.someimage.com/gRcu477.jpg&quot; rel=&quot;nofollow&quot; target=&quot;_NEW&quot;&gt;\nhttp://i1.someimage.com/gRcu477.jpg&lt;/a&gt;\n &lt;a href=&quot;\nhttp://img208.imageshack.us/img208/2125/2y0h.png&quot; rel=&quot;nofollow&quot; target=&quot;_NEW&quot;&gt;\nhttp://img208.imageshack.us/img208/2125/2y0h.png&lt;/a&gt;\n\nFormat                                   : Matroska\nFormat version                           : Version 2\nFile size                                : 845 MiB\nDuration                                 : 1h 41mn\nOverall bit rate                         : 1 162 Kbps\nMovie name                               : Inkheart (2008) 720p BrRip x264 [Hindi] ~ Lokioddin\n\n[img]http://img809.imageshack.us/img809/9176/zqkq.png[/img]\n\nDuration                                 : 1h 41mn\nBit rate                                 : 990 Kbps\nWidth                                    : 1 280 pixels\nHeight                                   : 554 pixels\nDisplay aspect ratio                     : 2.35:1\nFrame rate mode                          : Constant\nFrame rate                               : 25.000 fps\nColor space                              : YUV\nChroma subsampling                       : 4:2:0\nBit depth                                : 8 bits\nScan type                                : Progressive\nBits/(Pixel*Frame)                       : 0.056\nStream size                              : 735 MiB (87%)\nTitle                                    : Lokioddin\n &lt;a href=&quot;\nhttp://img89.imageshack.us/img89/4154/5vbf.png&quot; rel=&quot;nofollow&quot; target=&quot;_NEW&quot;&gt;\nhttp://img89.imageshack.us/img89/4154/5vbf.png&lt;/a&gt;\n\nDuration                                 : 1h 41mn\nBit rate mode                            : Constant\nBit rate                                 : 128 Kbps\nChannel(s)                               : 2 channels\nSampling rate                            : 44.1 KHz\nCompression mode                         : Lossy\nDelay relative to video                  : 1s 0ms\nStream size                              : 93.1 MiB (11%)\nTitle                                    : Lokioddin\nLanguage                                 : Hindi\n\n &lt;a href=&quot;\nhttp://img39.imageshack.us/img39/6429/gnwt.png&quot; rel=&quot;nofollow&quot; target=&quot;_NEW&quot;&gt;\nhttp://img39.imageshack.us/img39/6429/gnwt.png&lt;/a&gt;\n &lt;a href=&quot;\nhttp://i1.someimage.com/hvrut8z.png&quot; rel=&quot;nofollow&quot; target=&quot;_NEW&quot;&gt;\nhttp://i1.someimage.com/hvrut8z.png&lt;/a&gt;\n &lt;a href=&quot;\nhttp://i1.someimage.com/pqa2zAc.png&quot; rel=&quot;nofollow&quot; target=&quot;_NEW&quot;&gt;\nhttp://i1.someimage.com/pqa2zAc.png&lt;/a&gt;\n &lt;a href=&quot;\nhttp://i1.someimage.com/ToGaUeA.png&quot; rel=&quot;nofollow&quot; target=&quot;_NEW&quot;&gt;\nhttp://i1.someimage.com/ToGaUeA.png&lt;/a&gt;\n &lt;a href=&quot;\nhttp://i1.someimage.com/rgOxYRR.png&quot; rel=&quot;nofollow&quot; target=&quot;_NEW&quot;&gt;\nhttp://i1.someimage.com/rgOxYRR.png&lt;/a&gt;\n &lt;a href=&quot;\nhttp://i1.someimage.com/SOPZ96k.png&quot; rel=&quot;nofollow&quot; target=&quot;_NEW&quot;&gt;\nhttp://i1.someimage.com/SOPZ96k.png&lt;/a&gt;\n &lt;a href=&quot;\nhttp://i1.someimage.com/T6Sc1sL.png&quot; rel=&quot;nofollow&quot; target=&quot;_NEW&quot;&gt;\nhttp://i1.someimage.com/T6Sc1sL.png&lt;/a&gt;\n &lt;a href=&quot;\nhttp://i1.someimage.com/s4KIlKA.png&quot; rel=&quot;nofollow&quot; target=&quot;_NEW&quot;&gt;\nhttp://i1.someimage.com/s4KIlKA.png&lt;/a&gt;\n &lt;a href=&quot;\nhttp://i1.someimage.com/KbDtp9u.png&quot; rel=&quot;nofollow&quot; target=&quot;_NEW&quot;&gt;\nhttp://i1.someimage.com/KbDtp9u.png&lt;/a&gt;\n &lt;a href=&quot;\nhttp://i1.someimage.com/9dUqkyO.png&quot; rel=&quot;nofollow&quot; target=&quot;_NEW&quot;&gt;\nhttp://i1.someimage.com/9dUqkyO.png&lt;/a&gt;\n &lt;a href=&quot;\nhttp://i1.someimage.com/8gvRUaH.png&quot; rel=&quot;nofollow&quot; target=&quot;_NEW&quot;&gt;\nhttp://i1.someimage.com/8gvRUaH.png&lt;/a&gt;\n &lt;a href=&quot;\nhttp://i1.someimage.com/d2bO4F8.png&quot; rel=&quot;nofollow&quot; target=&quot;_NEW&quot;&gt;\nhttp://i1.someimage.com/d2bO4F8.png&lt;/a&gt;\n\n[b]Lokioddin[/b] \n\n\n\n[img]http://img9.imageshack.us/img9/9342/m34.gif[/img]\n\n[img]http://img443.imageshack.us/img443/3206/esk.gif[/img]\n\n[img]http://img844.imageshack.us/img844/9744/pbq.gif[/img]\n\n[img]http://img35.imageshack.us/img35/975/wc7e.jpg[/img]\n","torrent":{"xt":"urn:btih:38c8f0fd3ee7c413c47797029999866ebbbd4922","amp;dn":"Inkheart+%282008%29+720p+BrRip+x264+%5BHindi%5D+%7E+Lokioddin+%28PimpRG%29","amp;tr":["udp%3A%2F%2Ftracker.openbittorrent.com%3A80","udp%3A%2F%2Fopen.demonii.com%3A1337","udp%3A%2F%2Ftracker.coppersurfer.tk%3A6969","udp%3A%2F%2Fexodus.desync.com%3A6969"],"infoHash":"38c8f0fd3ee7c413c47797029999866ebbbd4922","infoHashBuffer":{"type":"Buffer","data":[56,200,240,253,62,231,196,19,196,119,151,2,153,153,134,110,187,189,73,34]},"announce":[],"urlList":[]}}